<svg xmlns="http://www.w3.org/2000/svg" width="80.031" height="80" viewBox="0 0 80.031 80">
  <g id="Icon_ionic-logo-buffer" data-name="Icon ionic-logo-buffer" transform="translate(-4.488 -4.5)">
    <g id="Group_2" data-name="Group 2" transform="translate(4.488 4.5)">
      <path id="Path_1" data-name="Path 1" d="M5.892,25.438l35.25,17.021a8.771,8.771,0,0,0,6.708,0L83.1,25.438c1.854-.9,1.854-2.354,0-3.25L47.851,5.167a8.771,8.771,0,0,0-6.708,0L5.892,22.187C4.038,23.083,4.038,24.542,5.892,25.438Z" transform="translate(-4.46 -4.5)" fill="#0246ff"/>
      <path id="Path_2" data-name="Path 2" d="M83.128,19.984s-6.438-3.1-7.292-3.521a1.724,1.724,0,0,0-1.979.021c-.9.417-26,12.542-26,12.542a8.771,8.771,0,0,1-6.708,0S16.712,17.234,15.566,16.672a2.385,2.385,0,0,0-2.729-.062L5.878,19.964c-1.854.9-1.854,2.354,0,3.25l35.25,17.021a8.771,8.771,0,0,0,6.708,0l35.25-17.021C84.982,22.339,84.982,20.88,83.128,19.984Z" transform="translate(-4.488 18.391)" fill="#0246ff"/>
    </g>
    <path id="Path_3" data-name="Path 3" d="M83.115,26.966s-6.438-3.1-7.292-3.521a1.724,1.724,0,0,0-1.979.021c-.9.417-25.979,12.563-25.979,12.563a8.771,8.771,0,0,1-6.708,0S16.719,24.237,15.573,23.675a2.385,2.385,0,0,0-2.729-.062L5.885,26.966c-1.854.9-1.854,2.354,0,3.25l35.25,17.021a7.779,7.779,0,0,0,3.354.667,8.1,8.1,0,0,0,3.354-.667l35.25-17.021C84.969,29.321,84.969,27.862,83.115,26.966Z" transform="translate(0.014 36.596)" fill="#0246ff"/>
  </g>
</svg>
